HIERARCHY
ROOT Hips
{
  OFFSET 5.84602e-005 68.8428 3.50346
  CHANNELS 6 Xposition Yposition Zposition Zrotation Xrotation Yrotation
  JOINT Spine
  {
    OFFSET 0 8.597 -4.6522
    CHANNELS 3 Zrotation Xrotation Yrotation
    JOINT Spine1
    {
      OFFSET 0 7.8454 0.4098
      CHANNELS 3 Zrotation Xrotation Yrotation
      JOINT Spine2
      {
        OFFSET 0 9.7078 -2.1609
        CHANNELS 3 Zrotation Xrotation Yrotation
        JOINT Neck
        {
          OFFSET 0 21.8761 -0.4549
          CHANNELS 3 Zrotation Xrotation Yrotation
          JOINT Head
          {
            OFFSET 0 12.3537 3.3602
            CHANNELS 3 Zrotation Xrotation Yrotation
            End Site
            {
              OFFSET 0.0001 18.9506 0.5657
            }
          }
        }
        JOINT LeftShoulder
        {
          OFFSET 2.2086 21.1115 7.2329
          CHANNELS 3 Zrotation Xrotation Yrotation
          JOINT LeftArm
          {
            OFFSET 13.1193 3.0282 -4.8998
            CHANNELS 3 Zrotation Xrotation Yrotation
            JOINT LeftForeArm
            {
              OFFSET 27.4081 -0.0973053 -0.2375
              CHANNELS 3 Zrotation Xrotation Yrotation
              JOINT LeftHand
              {
                OFFSET 22.8641 0.0662994 -0.1369
                CHANNELS 3 Zrotation Xrotation Yrotation
                JOINT LeftHandIndex1
                {
                  OFFSET 8.8614 0.775009 2.4612
                  CHANNELS 3 Zrotation Xrotation Yrotation
                  JOINT LeftHandIndex2
                  {
                    OFFSET 3.3146 -0.808304 0.5841
                    CHANNELS 3 Zrotation Xrotation Yrotation
                    JOINT LeftHandIndex3
                    {
                      OFFSET 2.2628 -0.552002 0.3989
                      CHANNELS 3 Zrotation Xrotation Yrotation
                      End Site
                      {
                        OFFSET 1.6102 -0.4807 0.2612
                      }
                    }
                  }
                }
                JOINT LeftHandMiddle1
                {
                  OFFSET 8.9937 0.895004 0.2143
                  CHANNELS 3 Zrotation Xrotation Yrotation
                  JOINT LeftHandMiddle2
                  {
                    OFFSET 4.0984 0.0113983 -0.0242
                    CHANNELS 3 Zrotation Xrotation Yrotation
                    JOINT LeftHandMiddle3
                    {
                      OFFSET 2.2716 0.00689697 -0.0138001
                      CHANNELS 3 Zrotation Xrotation Yrotation
                      End Site
                      {
                        OFFSET 2.0404 -0.1441 0.0027
                      }
                    }
                  }
                }
                JOINT LeftHandRing1
                {
                  OFFSET 8.5234 0.597198 -2.0164
                  CHANNELS 3 Zrotation Xrotation Yrotation
                  JOINT LeftHandRing2
                  {
                    OFFSET 3.7188 -0.188293 -0.2328
                    CHANNELS 3 Zrotation Xrotation Yrotation
                    JOINT LeftHandRing3
                    {
                      OFFSET 2.1191 -0.106598 -0.1332
                      CHANNELS 3 Zrotation Xrotation Yrotation
                      End Site
                      {
                        OFFSET 1.8737 -0.2304 -0.0886
                      }
                    }
                  }
                }
                JOINT LeftHandPinky1
                {
                  OFFSET 7.9094 -0.601089 -3.4825
                  CHANNELS 3 Zrotation Xrotation Yrotation
                  JOINT LeftHandPinky2
                  {
                    OFFSET 2.2874 -0.477005 -0.6314
                    CHANNELS 3 Zrotation Xrotation Yrotation
                    JOINT LeftHandPinky3
                    {
                      OFFSET 1.6774 -0.349396 -0.4633
                      CHANNELS 3 Zrotation Xrotation Yrotation
                      End Site
                      {
                        OFFSET 1.4888 -0.4091 -0.3416
                      }
                    }
                  }
                }
                JOINT LeftHandThumb1
                {
                  OFFSET 1.833 -1.3875 1.3896
                  CHANNELS 3 Zrotation Xrotation Yrotation
                  JOINT LeftHandThumb2
                  {
                    OFFSET 3.4129 -1.121 2.5732
                    CHANNELS 3 Zrotation Xrotation Yrotation
                    JOINT LeftHandThumb3
                    {
                      OFFSET 2.2474 -0.804199 1.6192
                      CHANNELS 3 Zrotation Xrotation Yrotation
                      End Site
                      {
                        OFFSET 1.6527 -0.5689 1.1317
                      }
                    }
                  }
                }
              }
            }
          }
        }
        JOINT RightShoulder
        {
          OFFSET -2.2086 21.1115 7.2329
          CHANNELS 3 Zrotation Xrotation Yrotation
          JOINT RightArm
          {
            OFFSET -13.1216 3.0287 -4.9007
            CHANNELS 3 Zrotation Xrotation Yrotation
            JOINT RightForeArm
            {
              OFFSET -27.4081 -0.0973053 -0.2375
              CHANNELS 3 Zrotation Xrotation Yrotation
              JOINT RightHand
              {
                OFFSET -22.8641 0.0664063 -0.1369
                CHANNELS 3 Zrotation Xrotation Yrotation
                JOINT RightHandIndex1
                {
                  OFFSET -8.8614 0.774994 2.4612
                  CHANNELS 3 Zrotation Xrotation Yrotation
                  JOINT RightHandIndex2
                  {
                    OFFSET -3.3146 -0.808304 0.5841
                    CHANNELS 3 Zrotation Xrotation Yrotation
                    JOINT RightHandIndex3
                    {
                      OFFSET -2.2628 -0.552002 0.3989
                      CHANNELS 3 Zrotation Xrotation Yrotation
                      End Site
                      {
                        OFFSET -1.6102 -0.4807 0.2612
                      }
                    }
                  }
                }
                JOINT RightHandMiddle1
                {
                  OFFSET -8.9937 0.894989 0.2143
                  CHANNELS 3 Zrotation Xrotation Yrotation
                  JOINT RightHandMiddle2
                  {
                    OFFSET -4.0984 0.0113983 -0.0242
                    CHANNELS 3 Zrotation Xrotation Yrotation
                    JOINT RightHandMiddle3
                    {
                      OFFSET -2.2716 0.00691223 -0.0138001
                      CHANNELS 3 Zrotation Xrotation Yrotation
                      End Site
                      {
                        OFFSET -2.0404 -0.1441 0.0027
                      }
                    }
                  }
                }
                JOINT RightHandRing1
                {
                  OFFSET -8.5234 0.597198 -2.0164
                  CHANNELS 3 Zrotation Xrotation Yrotation
                  JOINT RightHandRing2
                  {
                    OFFSET -3.7188 -0.188309 -0.2328
                    CHANNELS 3 Zrotation Xrotation Yrotation
                    JOINT RightHandRing3
                    {
                      OFFSET -2.1191 -0.106598 -0.1332
                      CHANNELS 3 Zrotation Xrotation Yrotation
                      End Site
                      {
                        OFFSET -1.8737 -0.2304 -0.0886
                      }
                    }
                  }
                }
                JOINT RightHandPinky1
                {
                  OFFSET -7.9094 -0.601105 -3.4825
                  CHANNELS 3 Zrotation Xrotation Yrotation
                  JOINT RightHandPinky2
                  {
                    OFFSET -2.2874 -0.477005 -0.6314
                    CHANNELS 3 Zrotation Xrotation Yrotation
                    JOINT RightHandPinky3
                    {
                      OFFSET -1.6774 -0.349396 -0.4633
                      CHANNELS 3 Zrotation Xrotation Yrotation
                      End Site
                      {
                        OFFSET -1.4888 -0.4091 -0.3416
                      }
                    }
                  }
                }
                JOINT RightHandThumb1
                {
                  OFFSET -1.833 -1.38751 1.3896
                  CHANNELS 3 Zrotation Xrotation Yrotation
                  JOINT RightHandThumb2
                  {
                    OFFSET -3.41299 -1.12099 2.5732
                    CHANNELS 3 Zrotation Xrotation Yrotation
                    JOINT RightHandThumb3
                    {
                      OFFSET -2.24741 -0.804108 1.6192
                      CHANNELS 3 Zrotation Xrotation Yrotation
                      End Site
                      {
                        OFFSET -1.6527 -0.5689 1.1317
                      }
                    }
                  }
                }
              }
            }
          }
        }
      }
    }
  }
  JOINT RightUpLeg
  {
    OFFSET -9.1966 3.8861 -0.7581
    CHANNELS 3 Zrotation Xrotation Yrotation
    JOINT RightLeg
    {
      OFFSET -0.7359 -41.0265 0
      CHANNELS 3 Zrotation Xrotation Yrotation
      JOINT RightFoot
      {
        OFFSET 0 -40.2855 0
        CHANNELS 3 Zrotation Xrotation Yrotation
        JOINT RightToeBase
        {
          OFFSET 0 -5.6122 11.7359
          CHANNELS 3 Zrotation Xrotation Yrotation
          End Site
          {
            OFFSET 0 0 7.8731
          }
        }
      }
    }
  }
  JOINT LeftUpLeg
  {
    OFFSET 9.1965 3.8864 -0.7581
    CHANNELS 3 Zrotation Xrotation Yrotation
    JOINT LeftLeg
    {
      OFFSET 0.7359 -41.0268 0
      CHANNELS 3 Zrotation Xrotation Yrotation
      JOINT LeftFoot
      {
        OFFSET 0 -40.2855 0
        CHANNELS 3 Zrotation Xrotation Yrotation
        JOINT LeftToeBase
        {
          OFFSET 0 -5.6122 11.7359
          CHANNELS 3 Zrotation Xrotation Yrotation
          End Site
          {
            OFFSET 0 0 7.8731
          }
        }
      }
    }
  }
}
MOTION
Frames:	4
Frame Time:	0.0333333
0.864452 66.5427 25.5698 0 28.1254 -0 0.380495 -1.65975 -0.437913 0.748754 -3.32237 -0.865329 0.748754 -3.32237 -0.865329 16.2441 1.62011 8.97754 -7.11623e-006 1.67987 -3.09589e-006 -23.0951 35.2325 -8.62524 -81.2437 -49.2563 -50.2364 -104.614 1.80182 -11.9753 134.99 45.23 -99.3594 -6.36111e-015 -4.77083e-015 -1.27222e-014 -4.20234e-006 2.57049e-007 2.14746e-006 -0 -1.59028e-015 -0 -6.36111e-015 -4.77083e-015 -1.27222e-014 -0.0145875 -8.84668e-005 -3.64666e-006 -1.48318e-006 -7.65185e-007 -1.46335e-007 -6.36111e-015 -4.77083e-015 -1.27222e-014 -0.0186514 -0.00117065 6.81937e-005 9.54166e-015 -1.11319e-014 -3.18055e-015 -6.36111e-015 -4.77083e-015 -1.27222e-014 -0.0122238 -0.00323227 0.000674657 9.54166e-015 2.3059e-014 3.18055e-015 -6.36111e-015 -4.77083e-015 -1.27222e-014 -4.20234e-006 2.57049e-007 2.14746e-006 -0 -1.59028e-015 -0 22.1604 35.0251 5.3651 80.7157 -50.1216 49.7936 106.45 2.22138 11.7136 -139.538 51.8819 104.914 1.76556e-030 -1.59028e-014 6.36111e-015 -3.18055e-015 -1.74931e-014 6.36111e-015 -3.18055e-015 -1.66979e-014 6.36111e-015 1.76556e-030 -1.59028e-014 6.36111e-015 0.0149364 -8.41904e-005 -1.35945e-008 -3.18055e-015 2.38542e-015 -3.18055e-015 1.76556e-030 -1.59028e-014 6.36111e-015 0.0189438 -0.00119014 -5.58438e-005 -6.36111e-015 -1.59028e-015 9.54166e-015 1.76556e-030 -1.59028e-014 6.36111e-015 0.0122842 -0.00324896 -0.000678656 -3.18055e-015 -1.59028e-015 -6.36111e-015 1.76556e-030 -1.59028e-014 6.36111e-015 -3.18055e-015 -1.74931e-014 6.36111e-015 -3.18055e-015 -1.66979e-014 6.36111e-015 -27.5446 -48.5006 -32.7854 5.31837 31.113 -5.5579 -6.15497 5.89133 -8.19483 -7.17786e-007 -1.58288e-006 -6.25602e-009 26.7384 -48.9702 34.2032 -5.40835 32.5847 5.87138 7.90957 4.00502 6.75757 -9.1362e-008 1.17204e-006 3.17882e-006 
0.864444 66.5462 25.3186 0 28.7528 -0 0.382296 -1.84046 -0.434946 0.751178 -3.68371 -0.858256 0.751178 -3.6837 -0.858256 16.1488 1.12872 9.06408 -2.19253e-006 0.616672 1.14607e-006 -23.101 35.3597 -8.52021 -81.2437 -49.2563 -50.2363 -104.798 1.84498 -11.9457 135.14 45.2954 -99.2124 6.36111e-015 7.95139e-015 -9.54166e-015 6.36111e-015 1.59028e-015 -6.36111e-015 7.94503e-031 7.15625e-015 -6.36111e-015 6.36111e-015 7.95139e-015 -9.54166e-015 -0.014589 -8.55818e-005 -8.73772e-006 -2.64834e-031 -4.77083e-015 -3.18055e-015 6.36111e-015 7.95139e-015 -9.54166e-015 -0.0187244 -0.00117349 5.76527e-005 6.36111e-015 -1.98785e-014 -9.54166e-015 6.36111e-015 7.95139e-015 -9.54166e-015 -0.0122044 -0.00322676 0.000672837 3.18055e-015 -1.59028e-015 -3.18055e-015 6.36111e-015 7.95139e-015 -9.54166e-015 6.36111e-015 1.59028e-015 -6.36111e-015 7.94503e-031 7.15625e-015 -6.36111e-015 22.1672 35.1493 5.25325 80.7157 -50.1216 49.7936 106.45 2.22139 11.7136 -139.538 51.8819 104.914 -4.17833e-006 -3.00005e-007 2.14835e-006 -3.20875e-006 8.19577e-007 1.34179e-006 -5.14791e-006 -1.41959e-006 2.95492e-006 -4.17833e-006 -3.00005e-007 2.14835e-006 0.0150396 -8.72928e-005 4.36681e-006 -3.79644e-006 -2.12035e-006 3.29135e-006 -4.17833e-006 -3.00005e-007 2.14835e-006 0.019009 -0.00118808 -4.95354e-005 -5.14774e-006 -1.41911e-006 2.95521e-006 -4.17833e-006 -3.00005e-007 2.14835e-006 0.0122826 -0.00325338 -0.00067473 -5.14773e-006 -1.41933e-006 2.95521e-006 -4.17833e-006 -3.00005e-007 2.14835e-006 -3.20875e-006 8.19577e-007 1.34179e-006 -5.14791e-006 -1.41959e-006 2.95492e-006 -27.8389 -49.2085 -33.0006 5.31994 31.1195 -5.56446 -6.12885 6.09392 -8.394 -2.88716e-006 9.77086e-007 -6.55314e-008 27.0369 -49.6845 34.4401 -5.40967 32.5903 5.87808 7.90046 4.20476 6.92942 1.59028e-015 0 3.18055e-015 
0.864432 66.5507 25.0674 0 29.3801 -0 0.384101 -2.0211 -0.431968 0.753638 -4.04507 -0.851154 0.753638 -4.04507 -0.851154 16.0544 0.637558 9.14979 5.58775e-006 -0.447626 -1.77722e-007 -23.1072 35.487 -8.41487 -81.2437 -49.2563 -50.2363 -104.981 1.88803 -11.9161 135.29 45.3611 -99.0655 -5.29669e-031 -9.54166e-015 -3.18055e-015 2.97322e-006 3.17208e-006 -1.3033e-006 -1.23589e-030 1.11319e-014 6.36111e-015 -5.29669e-031 -9.54166e-015 -3.18055e-015 -0.0146435 -9.05394e-005 -1.14305e-007 -3.18055e-015 0 6.36111e-015 -5.29669e-031 -9.54166e-015 -3.18055e-015 -0.0187831 -0.00117974 6.19016e-005 -1.28003e-030 -2.3059e-014 -3.18055e-015 -5.29669e-031 -9.54166e-015 -3.18055e-015 -0.012344 -0.0032688 0.000683523 3.18055e-015 1.19271e-014 -0 -5.29669e-031 -9.54166e-015 -3.18055e-015 2.97322e-006 3.17208e-006 -1.3033e-006 -1.23589e-030 1.11319e-014 6.36111e-015 22.1742 35.2736 5.14116 80.7157 -50.1216 49.7936 106.45 2.22138 11.7136 -139.538 51.8819 104.914 3.18055e-015 0 3.18055e-015 3.18055e-015 2.38542e-015 6.36111e-015 -6.36111e-015 -6.36111e-015 -9.54166e-015 3.18055e-015 0 3.18055e-015 0.014959 -8.92969e-005 -2.10558e-006 6.36111e-015 7.95139e-016 -0 3.18055e-015 0 3.18055e-015 0.0190875 -0.00120167 -6.21791e-005 3.18055e-015 7.95139e-016 -6.36111e-015 3.18055e-015 0 3.18055e-015 0.0122935 -0.00325061 -0.000673058 -6.36111e-015 -3.18055e-015 6.36111e-015 3.18055e-015 0 3.18055e-015 3.18055e-015 2.38542e-015 6.36111e-015 -6.36111e-015 -6.36111e-015 -9.54166e-015 -28.1418 -49.9156 -33.2247 5.32161 31.1264 -5.57103 -6.10202 6.29617 -8.59337 7.95139e-016 -1.59028e-015 -0 27.3446 -50.3979 34.6865 -5.41104 32.596 5.8848 7.89073 4.40438 7.10136 -7.95139e-016 -3.18055e-015 -6.36111e-015 
0.864416 66.5561 24.8164 0 30.0074 -0 0.385895 -2.20174 -0.428959 0.756108 -4.40628 -0.843993 0.756108 -4.40628 -0.843993 15.9606 0.145673 9.23472 -1.27237e-006 -1.51284 -3.26115e-007 -23.1136 35.6141 -8.30952 -81.2437 -49.2563 -50.2364 -105.164 1.93099 -11.8862 135.441 45.427 -98.9187 5.19109e-006 -1.37709e-006 -2.92612e-006 2.23284e-006 1.97217e-006 -5.74531e-007 5.19109e-006 -1.37709e-006 -2.92612e-006 5.19109e-006 -1.37709e-006 -2.92612e-006 -0.0145947 -8.67045e-005 -1.79285e-006 5.191e-006 -1.37672e-006 -2.9263e-006 5.19109e-006 -1.37709e-006 -2.92612e-006 -0.0187466 -0.00117737 5.84736e-005 5.19095e-006 -1.37663e-006 -2.9264e-006 5.19109e-006 -1.37709e-006 -2.92612e-006 -0.0122565 -0.00324493 0.000678915 5.19093e-006 -1.37683e-006 -2.92641e-006 5.19109e-006 -1.37709e-006 -2.92612e-006 2.23284e-006 1.97217e-006 -5.74531e-007 5.19109e-006 -1.37709e-006 -2.92612e-006 22.1816 35.3977 5.02894 80.7157 -50.1216 49.7936 106.451 2.22139 11.7136 -139.538 51.8819 104.913 4.41391e-032 -7.95139e-016 3.18055e-015 -0 -4.77083e-015 -0 2.64834e-031 2.38542e-015 -6.36111e-015 4.41391e-032 -7.95139e-016 3.18055e-015 0.0149737 -9.06975e-005 3.37287e-006 3.18055e-015 -1.66979e-014 6.36111e-015 4.41391e-032 -7.95139e-016 3.18055e-015 0.0189952 -0.00119417 -5.95469e-005 3.18055e-015 -2.38542e-015 -6.36111e-015 4.41391e-032 -7.95139e-016 3.18055e-015 0.0122329 -0.00323589 -0.000671443 4.41391e-031 7.95139e-015 -3.18055e-015 4.41391e-032 -7.95139e-016 3.18055e-015 -0 -4.77083e-015 -0 2.64834e-031 2.38542e-015 -6.36111e-015 -28.4535 -50.6218 -33.458 5.32325 31.1332 -5.57755 -6.07446 6.49841 -8.79292 1.85157e-006 -3.79395e-007 7.59652e-008 27.6617 -51.1102 34.9427 -5.41239 32.6017 5.8915 7.88042 4.60401 7.2734 8.16824e-007 -2.18181e-007 7.92428e-008 
